<svg width="38" height="33" viewBox="0 0 38 33" fill="none" xmlns="http://www.w3.org/2000/svg">
<path fill-rule="evenodd" clip-rule="evenodd" d="M14.1856 0.053788C12.927 0.313408 11.7131 1.1754 11.0702 2.26595C10.953 2.46479 10.6749 3.16281 10.4522 3.81718L10.0472 5.00686L6.84634 5.04839L3.64546 5.08992L3.11117 5.29589C1.64823 5.85982 0.67766 6.85036 0.181481 8.2858L0 8.81083V19.034V29.2571L0.207871 29.7914C0.822448 31.371 1.93828 32.3876 3.49457 32.7857C4.09346 32.9388 4.42773 32.9422 18.9802 32.9422C33.5326 32.9422 33.8669 32.9388 34.4658 32.7857C35.3425 32.5614 35.9707 32.2026 36.6155 31.5577C37.2604 30.913 37.6192 30.2847 37.8435 29.408C37.9952 28.8146 38 28.4959 38 18.9944C38 9.49285 37.9952 9.17411 37.8435 8.58069C37.4386 6.9976 36.3927 5.87322 34.7525 5.25753C34.3445 5.10426 34.099 5.09031 31.114 5.05006L27.9132 5.00686L27.5082 3.81718C27.0473 2.4632 26.8385 2.06965 26.2378 1.42329C25.7581 0.907064 25.1741 0.527778 24.3883 0.222034L23.854 0.0141634L19.1783 0.00124592C16.6067 -0.00580727 14.36 0.0178089 14.1856 0.053788ZM23.5424 2.62709C24.0302 2.77259 24.481 3.13904 24.7006 3.56825C24.7931 3.74926 25.0941 4.5706 25.3694 5.39344C25.6447 6.21629 25.9273 6.97708 25.9975 7.08415C26.0676 7.19113 26.2737 7.3463 26.4556 7.42888C26.7636 7.56875 27.0218 7.57914 30.2393 7.58072C34.1979 7.5827 34.2048 7.58365 34.8338 8.21265C35.5105 8.88936 35.464 8.09394 35.464 18.9944C35.464 29.8948 35.5105 29.0993 34.8338 29.7761C34.1465 30.4633 35.5825 30.4062 18.9802 30.4062C2.37787 30.4062 3.81387 30.4633 3.12654 29.7761C2.44983 29.0993 2.49635 29.8948 2.49635 18.9944C2.49635 8.09394 2.44983 8.88936 3.12654 8.21265C3.75562 7.58365 3.76252 7.5827 7.72109 7.58072C10.9161 7.57914 11.1984 7.56796 11.4987 7.43157C11.9366 7.23274 12.066 6.99008 12.6018 5.36349C13.1478 3.70607 13.3313 3.31933 13.7272 2.9914C14.2887 2.52636 14.3358 2.52208 18.946 2.51606C22.4297 2.51147 23.2187 2.53056 23.5424 2.62709ZM17.9103 8.89982C16.5687 9.10302 15.5614 9.42509 14.4983 9.99061C12.0271 11.3052 10.2651 13.6606 9.65969 16.4584C9.45713 17.3942 9.45713 19.3265 9.65969 20.2623C10.388 23.6285 12.8149 26.3455 16.0208 27.3839C17.1141 27.738 17.7277 27.8306 18.9802 27.8306C19.6403 27.8306 20.3654 27.7839 20.684 27.7207C24.5494 26.9551 27.4087 24.1524 28.3061 20.2495C28.4902 19.4485 28.4891 17.2868 28.3043 16.4712C27.4362 12.6434 24.6573 9.86651 20.8693 9.04152C20.305 8.91868 18.3911 8.82699 17.9103 8.89982ZM31.141 10.2299C30.3414 10.5782 30.1526 11.6411 30.779 12.2675C31.2931 12.7815 32.0271 12.7815 32.5412 12.2675C33.5247 11.2839 32.4182 9.67361 31.141 10.2299ZM20.684 11.6075C23.2631 12.3138 25.0729 14.1436 25.7628 16.7424C25.9799 17.5602 25.9677 19.217 25.7385 20.0642C25.053 22.5971 23.2169 24.4331 20.684 25.1187C19.8368 25.3479 18.18 25.36 17.3622 25.143C14.3012 24.3304 12.2295 21.8511 12.0293 18.7612C11.902 16.7962 12.6372 14.8829 14.0699 13.4501C15.1139 12.406 16.3012 11.7762 17.7518 11.4967C18.4953 11.3535 19.9581 11.4088 20.684 11.6075Z" fill="#E0E0E0"/>
</svg>
